HIERARCHY
ROOT Hips
{
    OFFSET 0.000000 0.000000 0.000000
    CHANNELS 6 Xposition Yposition Zposition Zrotation Xrotation Yrotation
    JOINT Spine
    {
        OFFSET -0.000000 7.810951 0.000000
        CHANNELS 3 Zrotation Xrotation Yrotation
        JOINT Spine1
        {
            OFFSET -0.000000 18.868288 0.000000
            CHANNELS 3 Zrotation Xrotation Yrotation
            JOINT Neck
            {
                OFFSET -0.000000 18.790800 1.708255
                CHANNELS 3 Zrotation Xrotation Yrotation
                JOINT Head
                {
                    OFFSET -0.000000 13.335769 -1.905110
                    CHANNELS 3 Zrotation Xrotation Yrotation
                    End Site
                    {
                        OFFSET -0.000000 23.813873 0.000000
                    }
                }
            }
            JOINT LeftShoulder
            {
                OFFSET 3.868973 15.461964 -0.252686
                CHANNELS 3 Zrotation Xrotation Yrotation
                JOINT LeftArm
                {
                    OFFSET 15.258958 0.000000 0.000000
                    CHANNELS 3 Zrotation Xrotation Yrotation
                    JOINT LeftForeArm
                    {
                        OFFSET 27.600050 0.000000 0.000000
                        CHANNELS 3 Zrotation Xrotation Yrotation
                        JOINT LeftHand
                        {
                            OFFSET 23.737446 0.000000 0.000000
                            CHANNELS 3 Zrotation Xrotation Yrotation
                            End Site
                            {
                                OFFSET 14.288324 0.000000 0.000000
                            }
                        }
                    }
                }
            }
            JOINT RightShoulder
            {
                OFFSET -3.750262 15.461964 -0.252686
                CHANNELS 3 Zrotation Xrotation Yrotation
                JOINT RightArm
                {
                    OFFSET -15.258958 0.000000 0.000000
                    CHANNELS 3 Zrotation Xrotation Yrotation
                    JOINT RightForeArm
                    {
                        OFFSET -27.600050 0.000000 0.000000
                        CHANNELS 3 Zrotation Xrotation Yrotation
                        JOINT RightHand
                        {
                            OFFSET -23.737446 0.000000 0.000000
                            CHANNELS 3 Zrotation Xrotation Yrotation
                            End Site
                            {
                                OFFSET -14.288324 0.000000 0.000000
                            }
                        }
                    }
                }
            }
        }
    }
    JOINT LeftUpLeg
    {
        OFFSET 9.525549 0.000000 0.000000
        CHANNELS 3 Zrotation Xrotation Yrotation
        JOINT LeftLeg
        {
            OFFSET -0.000000 -45.198063 0.000000
            CHANNELS 3 Zrotation Xrotation Yrotation
            JOINT LeftFoot
            {
                OFFSET -0.000000 -37.850700 0.000000
                CHANNELS 3 Zrotation Xrotation Yrotation
                JOINT LeftToeBase
                {
                    OFFSET -0.000000 -6.191607 14.288324
                    CHANNELS 3 Zrotation Xrotation Yrotation
                    End Site
                    {
                        OFFSET -0.000000 0.000000 3.810220
                    }
                }
            }
        }
    }
    JOINT RightUpLeg
    {
        OFFSET -9.525549 0.000000 0.000000
        CHANNELS 3 Zrotation Xrotation Yrotation
        JOINT RightLeg
        {
            OFFSET -0.000000 -45.198063 0.000000
            CHANNELS 3 Zrotation Xrotation Yrotation
            JOINT RightFoot
            {
                OFFSET -0.000000 -37.850700 0.000000
                CHANNELS 3 Zrotation Xrotation Yrotation
                JOINT RightToeBase
                {
                    OFFSET -0.000000 -6.191607 14.288324
                    CHANNELS 3 Zrotation Xrotation Yrotation
                    End Site
                    {
                        OFFSET -0.000000 0.000000 3.810220
                    }
                }
            }
        }
    }
}
MOTION
Frames:    8
Frame Time:    0.008333
-8.303771    90.770462    20.232405    0.576824    -0.306386    179.370056    -1.440182    -5.381373    0.251449    0.946068    3.886585    0.287102    3.982001    18.002924    2.329125    -2.775136    -2.726215    2.029166    22.352600    -4.270721    -0.314544    -20.010628    0.584458    -6.968080    -1.058337    -2.638111    5.792053    -5.483454    -2.298808    -5.968474    -18.898876    -6.534536    1.241648    19.207167    -4.207706    -6.754446    -3.731776    -0.490889    3.454073    3.482509    -0.499925    -3.995015    3.863674    5.669995    -5.879503    -1.555754    -1.086310    -8.156028    -0.606720    -2.903366    20.902266    0.000000    0.000000    0.000000    -5.315946    7.983563    9.370436    2.460724    -6.863806    6.111690    1.130562    -0.007558    -22.150930    0.000000    0.000000    0.000000    
-8.301070    90.772453    20.221514    0.576258    -0.305410    179.362198    -1.432945    -5.373425    0.254027    0.927697    3.868376    0.290136    3.972776    17.890533    2.342705    -2.745451    -2.538219    2.048249    22.362570    -4.273168    -0.324284    -20.027330    0.583336    -6.967268    -1.049649    -2.654599    5.802629    -5.573562    -2.311232    -5.962615    -18.890911    -6.478195    1.273150    19.200205    -4.267721    -6.777906    -3.730272    -0.486892    3.476506    3.492107    -0.496441    -4.027314    3.864477    5.682376    -5.895819    -1.554977    -1.094773    -8.114949    -0.605316    -2.886979    20.882706    0.000000    0.000000    0.000000    -5.310727    7.990577    9.364218    2.474204    -6.855033    6.079990    1.082002    -0.004059    -22.125879    0.000000    0.000000    0.000000    
-8.295010    90.772644    20.213245    0.582982    -0.301010    179.359299    -1.426037    -5.357258    0.248248    0.928148    3.855530    0.283799    3.956177    17.860826    2.348120    -2.736957    -2.483933    2.055177    22.343836    -4.277576    -0.327741    -20.018919    0.579953    -6.950688    -1.068591    -2.654242    5.790746    -5.586669    -2.309780    -5.953642    -18.903303    -6.480811    1.290932    19.206011    -4.270844    -6.788243    -3.727398    -0.481830    3.485753    3.507480    -0.492143    -4.038772    3.875846    5.695447    -5.906355    -1.556285    -1.096766    -8.124541    -0.619331    -2.908177    20.896893    0.000000    0.000000    0.000000    -5.301717    8.001104    9.377238    2.447289    -6.865627    6.132824    1.120588    0.015032    -22.151033    0.000000    0.000000    0.000000    
-8.291796    90.774384    20.204964    0.581835    -0.306520    179.348907    -1.431012    -5.361409    0.253201    0.927077    3.857407    0.289184    3.959162    17.859505    2.339093    -2.731827    -2.484635    2.046601    22.348724    -4.283082    -0.335527    -20.031607    0.559960    -6.955606    -1.089844    -2.649785    5.791767    -5.550424    -2.305930    -5.957373    -18.905951    -6.493544    1.283951    19.200882    -4.269400    -6.781914    -3.720856    -0.477632    3.473616    3.529160    -0.489531    -4.045414    3.872205    5.697337    -5.899837    -1.554272    -1.100274    -8.072132    -0.629984    -2.894171    20.875254    0.000000    0.000000    0.000000    -5.308686    8.015812    9.403713    2.470942    -6.902077    6.085551    1.102049    0.033046    -22.141329    0.000000    0.000000    0.000000    
-8.287535    90.777397    20.194942    0.584017    -0.302749    179.349564    -1.421987    -5.352699    0.246938    0.909459    3.839995    0.283149    3.961105    17.876598    2.343218    -2.731906    -2.477448    2.051707    22.340733    -4.277375    -0.355320    -20.031507    0.548058    -6.942340    -1.086786    -2.649091    5.800856    -5.615110    -2.302803    -5.939795    -18.897394    -6.484301    1.302439    19.198343    -4.289546    -6.769228    -3.722129    -0.471039    3.440053    3.514396    -0.482967    -4.025768    3.875776    5.709527    -5.902938    -1.547307    -1.101272    -8.118605    -0.638858    -2.888966    20.915779    0.000000    0.000000    0.000000    -5.297200    8.009910    9.382935    2.470520    -6.866151    6.084940    1.097140    0.018774    -22.135294    0.000000    0.000000    0.000000    
-8.283906    90.778336    20.185453    0.588691    -0.303739    179.339264    -1.411442    -5.350569    0.252719    0.890257    3.832080    0.288827    4.002318    17.892115    2.339838    -2.775817    -2.487625    2.041993    22.345961    -4.279341    -0.382933    -20.035324    0.561861    -6.923849    -1.111789    -2.646732    5.798168    -5.592589    -2.301562    -5.915605    -18.884890    -6.500973    1.314275    19.188931    -4.253459    -6.787788    -3.715548    -0.492620    3.431197    3.510916    -0.505031    -4.034475    3.880524    5.719414    -5.899922    -1.546017    -1.106071    -8.108786    -0.631607    -2.884291    20.920479    0.000000    0.000000    0.000000    -5.293567    8.016642    9.402261    2.462628    -6.873528    6.114319    1.104084    0.035151    -22.160753    0.000000    0.000000    0.000000    
-8.281901    90.781746    20.176588    0.583068    -0.308471    179.318680    -1.422872    -5.350788    0.258113    0.904469    3.816482    0.294696    3.983831    17.906116    2.339033    -2.769099    -2.475642    2.042749    22.311478    -4.250822    -0.397641    -20.024862    0.538088    -6.932706    -1.092183    -2.650647    5.806992    -5.701149    -2.304388    -5.842556    -18.888880    -6.498137    1.338537    19.171793    -4.291578    -6.798745    -3.719344    -0.485190    3.418300    3.544739    -0.499631    -4.051885    3.869159    5.725725    -5.889266    -1.538539    -1.112700    -8.078466    -0.651602    -2.875934    20.907810    0.000000    0.000000    0.000000    -5.306172    8.027074    9.395439    2.465966    -6.905612    6.131824    1.133332    0.054856    -22.136429    0.000000    0.000000    0.000000    
-8.278152    90.784607    20.166990    0.585741    -0.305973    179.322876    -1.422351    -5.346443    0.256681    0.898519    3.805516    0.293394    4.001153    17.946440    2.332878    -2.781234    -2.505504    2.035500    22.309706    -4.237086    -0.428053    -20.037819    0.504981    -6.932257    -1.098848    -2.633930    5.835341    -5.696824    -2.287760    -5.833352    -18.882162    -6.513175    1.361317    19.162716    -4.289203    -6.828794    -3.720455    -0.489678    3.403490    3.550907    -0.505005    -4.055486    3.874454    5.737753    -5.927281    -1.539727    -1.121996    -8.036236    -0.654187    -2.865084    20.914650    0.000000    0.000000    0.000000    -5.295254    8.025835    9.404157    2.462200    -6.876794    6.137899    1.107238    0.037568    -22.160021    0.000000    0.000000    0.000000    
